<?plantuml 1.2026.2?><svg xmlns="http://www.w3.org/2000/svg" xmlns:xlink="http://www.w3.org/1999/xlink" contentStyleType="text/css" data-diagram-type="DESCRIPTION" height="483px" preserveAspectRatio="none" style="width:3561px;height:483px;background:#FFFFFF;" version="1.1" viewBox="0 0 3561 483" width="3561px" zoomAndPan="magnify"><defs/><g><!--cluster DashiRead--><g class="cluster" data-qualified-name="DashiRead" data-source-line="42" id="ent0015"><rect fill="#F8FAFC" height="154" rx="8" ry="8" style="stroke:#1F2937;stroke-width:1;" width="1184.8" x="2370.83" y="91.66"/><text fill="#111827" font-family="Arial" font-size="14" font-weight="bold" lengthAdjust="spacing" textLength="101.4296" x="2912.5152" y="108.6259">DASHI reading</text></g><!--entity DashiS--><g class="entity" data-qualified-name="DashiRead.DashiS" data-source-line="43" id="ent0016"><rect fill="#EFF6FF" height="61.1358" rx="8" ry="8" style="stroke:#1F2937;stroke-width:0.5;" width="293.563" x="2386.83" y="164.1"/><polygon fill="#EFF6FF" points="2663.393,169.1,2663.393,183.1,2675.393,183.1,2675.393,175.1,2669.393,169.1,2663.393,169.1" style="stroke:#1F2937;stroke-width:0.5;"/><line style="stroke:#1F2937;stroke-width:0.5;" x1="2669.393" x2="2669.393" y1="169.1" y2="175.1"/><line style="stroke:#1F2937;stroke-width:0.5;" x1="2675.393" x2="2669.393" y1="175.1" y2="175.1"/><text fill="#111827" font-family="Arial" font-size="14" lengthAdjust="spacing" textLength="69.4677" x="2396.83" y="192.0659">State layer</text><text fill="#111827" font-family="Arial" font-size="14" lengthAdjust="spacing" textLength="263.563" x="2396.83" y="211.1339">S_t := (loss_t, &#916;loss_t, SR_t, CN_t, basin_t)</text></g><!--entity DashiL--><g class="entity" data-qualified-name="DashiRead.DashiL" data-source-line="44" id="ent0017"><rect fill="#EFF6FF" height="61.1358" rx="8" ry="8" style="stroke:#1F2937;stroke-width:0.5;" width="158.518" x="2759.08" y="160.1"/><polygon fill="#EFF6FF" points="2900.598,165.1,2900.598,179.1,2912.598,179.1,2912.598,171.1,2906.598,165.1,2900.598,165.1" style="stroke:#1F2937;stroke-width:0.5;"/><line style="stroke:#1F2937;stroke-width:0.5;" x1="2906.598" x2="2906.598" y1="165.1" y2="171.1"/><line style="stroke:#1F2937;stroke-width:0.5;" x1="2912.598" x2="2906.598" y1="171.1" y2="171.1"/><text fill="#111827" font-family="Arial" font-size="14" lengthAdjust="spacing" textLength="79.4497" x="2769.08" y="188.0659">Lattice layer</text><text fill="#111827" font-family="Arial" font-size="14" lengthAdjust="spacing" textLength="128.518" x="2769.08" y="207.1339">L := (S, T, d_U, &#8828;_m)</text></g><!--entity DashiP--><g class="entity" data-qualified-name="DashiRead.DashiP" data-source-line="45" id="ent0018"><rect fill="#EFF6FF" height="61.1358" rx="8" ry="8" style="stroke:#1F2937;stroke-width:0.5;" width="276.4831" x="2978.6" y="158.1"/><polygon fill="#EFF6FF" points="3238.0831,163.1,3238.0831,177.1,3250.0831,177.1,3250.0831,169.1,3244.0831,163.1,3238.0831,163.1" style="stroke:#1F2937;stroke-width:0.5;"/><line style="stroke:#1F2937;stroke-width:0.5;" x1="3244.0831" x2="3244.0831" y1="163.1" y2="169.1"/><line style="stroke:#1F2937;stroke-width:0.5;" x1="3250.0831" x2="3244.0831" y1="169.1" y2="169.1"/><text fill="#111827" font-family="Arial" font-size="14" lengthAdjust="spacing" textLength="93.8977" x="2988.6" y="186.0659">Proposal layer</text><text fill="#111827" font-family="Arial" font-size="14" lengthAdjust="spacing" textLength="246.4831" x="2988.6" y="205.1339">P := geometry suppresses bad modes</text></g><!--entity DashiF--><g class="entity" data-qualified-name="DashiRead.DashiF" data-source-line="46" id="ent0019"><rect fill="#EFF6FF" height="99.2717" rx="8" ry="8" style="stroke:#1F2937;stroke-width:0.5;" width="223.5493" x="3316.08" y="130.03"/><polygon fill="#EFF6FF" points="3522.6293,135.03,3522.6293,149.03,3534.6293,149.03,3534.6293,141.03,3528.6293,135.03,3522.6293,135.03" style="stroke:#1F2937;stroke-width:0.5;"/><line style="stroke:#1F2937;stroke-width:0.5;" x1="3528.6293" x2="3528.6293" y1="135.03" y2="141.03"/><line style="stroke:#1F2937;stroke-width:0.5;" x1="3534.6293" x2="3528.6293" y1="141.03" y2="141.03"/><text fill="#111827" font-family="Arial" font-size="14" lengthAdjust="spacing" textLength="116.7875" x="3326.08" y="157.9959">Gap / governance</text><text fill="#111827" font-family="Arial" font-size="14" lengthAdjust="spacing" textLength="193.5493" x="3326.08" y="177.0639">F(P) := predicted vs measured</text><text fill="#111827" font-family="Arial" font-size="14" lengthAdjust="spacing" textLength="138.1935" x="3326.08" y="196.1318">bad-basin occupancy</text><text fill="#111827" font-family="Arial" font-size="14" lengthAdjust="spacing" textLength="136.0795" x="3326.08" y="215.1997">accept only if F(P) &lt; &#949;</text></g><!--entity RawLog--><g class="entity" data-qualified-name="RawLog" data-source-line="24" id="ent0002"><rect fill="#EFF6FF" height="61.1358" rx="8" ry="8" style="stroke:#1F2937;stroke-width:0.5;" width="228.2113" x="7" y="113.1"/><polygon fill="#EFF6FF" points="218.2113,118.1,218.2113,132.1,230.2113,132.1,230.2113,124.1,224.2113,118.1,218.2113,118.1" style="stroke:#1F2937;stroke-width:0.5;"/><line style="stroke:#1F2937;stroke-width:0.5;" x1="224.2113" x2="224.2113" y1="118.1" y2="124.1"/><line style="stroke:#1F2937;stroke-width:0.5;" x1="230.2113" x2="224.2113" y1="124.1" y2="124.1"/><text fill="#111827" font-family="Arial" font-size="14" lengthAdjust="spacing" textLength="51.8978" x="17" y="141.0659">Raw log</text><text fill="#111827" font-family="Arial" font-size="14" lengthAdjust="spacing" textLength="198.2113" x="17" y="160.1339">(step_t, train_loss_t, val_loss_t)</text></g><!--entity Adapter--><g class="entity" data-qualified-name="Adapter" data-source-line="25" id="ent0003"><rect fill="#F1F1F1" height="68.1358" rx="8" ry="8" style="stroke:#181818;stroke-width:0.5;" width="174.9175" x="331.21" y="109.6"/><rect fill="#F1F1F1" height="10" style="stroke:#181818;stroke-width:0.5;" width="15" x="486.1275" y="114.6"/><rect fill="#F1F1F1" height="2" style="stroke:#181818;stroke-width:0.5;" width="4" x="484.1275" y="116.6"/><rect fill="#F1F1F1" height="2" style="stroke:#181818;stroke-width:0.5;" width="4" x="484.1275" y="120.6"/><text fill="#000000" font-family="Arial" font-size="14" lengthAdjust="spacing" textLength="133.8255" x="346.21" y="144.5659">35_lila_log_to_csv.py</text><text fill="#000000" font-family="Arial" font-size="14" lengthAdjust="spacing" textLength="134.9175" x="346.21" y="163.6339">parse stepwise trace</text></g><!--entity Trace--><g class="entity" data-qualified-name="Trace" data-source-line="26" id="ent0004"><rect fill="#EFF6FF" height="61.1358" rx="8" ry="8" style="stroke:#1F2937;stroke-width:0.5;" width="197.3274" x="616.13" y="113.1"/><polygon fill="#EFF6FF" points="796.4574,118.1,796.4574,132.1,808.4574,132.1,808.4574,124.1,802.4574,118.1,796.4574,118.1" style="stroke:#1F2937;stroke-width:0.5;"/><line style="stroke:#1F2937;stroke-width:0.5;" x1="802.4574" x2="802.4574" y1="118.1" y2="124.1"/><line style="stroke:#1F2937;stroke-width:0.5;" x1="808.4574" x2="802.4574" y1="124.1" y2="124.1"/><text fill="#111827" font-family="Arial" font-size="14" lengthAdjust="spacing" textLength="64.6097" x="626.13" y="141.0659">Trace CSV</text><text fill="#111827" font-family="Arial" font-size="14" lengthAdjust="spacing" textLength="167.3274" x="626.13" y="160.1339">S_t := (step_t, loss_t, val_t)</text></g><!--entity Rep--><g class="entity" data-qualified-name="Rep" data-source-line="27" id="ent0005"><rect fill="#EFF6FF" height="61.1358" rx="8" ry="8" style="stroke:#1F2937;stroke-width:0.5;" width="160.1015" x="634.74" y="209.1"/><polygon fill="#EFF6FF" points="777.8415,214.1,777.8415,228.1,789.8415,228.1,789.8415,220.1,783.8415,214.1,777.8415,214.1" style="stroke:#1F2937;stroke-width:0.5;"/><line style="stroke:#1F2937;stroke-width:0.5;" x1="783.8415" x2="783.8415" y1="214.1" y2="220.1"/><line style="stroke:#1F2937;stroke-width:0.5;" x1="789.8415" x2="783.8415" y1="220.1" y2="220.1"/><text fill="#111827" font-family="Arial" font-size="14" lengthAdjust="spacing" textLength="130.1015" x="644.74" y="237.0659">Optional SR/CN CSV</text><text fill="#111827" font-family="Arial" font-size="14" lengthAdjust="spacing" textLength="105.2096" x="644.74" y="256.1339">R_t := (sr_t, cn_t)</text></g><!--entity Join--><g class="entity" data-qualified-name="Join" data-source-line="28" id="ent0006"><rect fill="#F1F1F1" height="68.1358" rx="8" ry="8" style="stroke:#181818;stroke-width:0.5;" width="136.4581" x="952.46" y="176.6"/><rect fill="#F1F1F1" height="10" style="stroke:#181818;stroke-width:0.5;" width="15" x="1068.9181" y="181.6"/><rect fill="#F1F1F1" height="2" style="stroke:#181818;stroke-width:0.5;" width="4" x="1066.9181" y="183.6"/><rect fill="#F1F1F1" height="2" style="stroke:#181818;stroke-width:0.5;" width="4" x="1066.9181" y="187.6"/><text fill="#000000" font-family="Arial" font-size="14" lengthAdjust="spacing" textLength="56.2518" x="967.46" y="211.5659">step join</text><text fill="#000000" font-family="Arial" font-size="14" lengthAdjust="spacing" textLength="96.4581" x="967.46" y="230.6339">X_t := S_t &#8853; R_t</text></g><!--entity Aligned--><g class="entity" data-qualified-name="Aligned" data-source-line="29" id="ent0007"><rect fill="#EFF6FF" height="61.1358" rx="8" ry="8" style="stroke:#1F2937;stroke-width:0.5;" width="230.9972" x="1198.91" y="180.1"/><polygon fill="#EFF6FF" points="1412.9072,185.1,1412.9072,199.1,1424.9072,199.1,1424.9072,191.1,1418.9072,185.1,1412.9072,185.1" style="stroke:#1F2937;stroke-width:0.5;"/><line style="stroke:#1F2937;stroke-width:0.5;" x1="1418.9072" x2="1418.9072" y1="185.1" y2="191.1"/><line style="stroke:#1F2937;stroke-width:0.5;" x1="1424.9072" x2="1418.9072" y1="191.1" y2="191.1"/><text fill="#111827" font-family="Arial" font-size="14" lengthAdjust="spacing" textLength="138.2075" x="1208.91" y="208.0659">Aligned state surface</text><text fill="#111827" font-family="Arial" font-size="14" lengthAdjust="spacing" textLength="200.9972" x="1208.91" y="227.1339">X_t = (loss_t, val_t, sr_t, cn_t, ...)</text></g><!--entity Dyn--><g class="entity" data-qualified-name="Dyn" data-source-line="31" id="ent0008"><rect fill="#F1F1F1" height="87.2038" rx="8" ry="8" style="stroke:#181818;stroke-width:0.5;" width="227.0673" x="1720.87" y="167.06"/><rect fill="#F1F1F1" height="10" style="stroke:#181818;stroke-width:0.5;" width="15" x="1927.9373" y="172.06"/><rect fill="#F1F1F1" height="2" style="stroke:#181818;stroke-width:0.5;" width="4" x="1925.9373" y="174.06"/><rect fill="#F1F1F1" height="2" style="stroke:#181818;stroke-width:0.5;" width="4" x="1925.9373" y="178.06"/><text fill="#000000" font-family="Arial" font-size="14" lengthAdjust="spacing" textLength="187.0673" x="1735.87" y="202.0259">36_lila_training_dynamics.py</text><text fill="#000000" font-family="Arial" font-size="14" lengthAdjust="spacing" textLength="176.8613" x="1735.87" y="221.0939">&#916; loss_t := loss_t - loss_{t-1}</text><text fill="#000000" font-family="Arial" font-size="14" lengthAdjust="spacing" textLength="131.2915" x="1735.87" y="240.1618">plot (loss_t, &#916; loss_t)</text></g><!--entity DynOut--><g class="entity" data-qualified-name="DynOut" data-source-line="32" id="ent0009"><rect fill="#EFF6FF" height="61.1358" rx="8" ry="8" style="stroke:#1F2937;stroke-width:0.5;" width="224.2493" x="2083.89" y="180.1"/><polygon fill="#EFF6FF" points="2291.1393,185.1,2291.1393,199.1,2303.1393,199.1,2303.1393,191.1,2297.1393,185.1,2291.1393,185.1" style="stroke:#1F2937;stroke-width:0.5;"/><line style="stroke:#1F2937;stroke-width:0.5;" x1="2297.1393" x2="2297.1393" y1="185.1" y2="191.1"/><line style="stroke:#1F2937;stroke-width:0.5;" x1="2303.1393" x2="2297.1393" y1="191.1" y2="191.1"/><text fill="#111827" font-family="Arial" font-size="14" lengthAdjust="spacing" textLength="97.4256" x="2093.89" y="208.0659">Timing surface</text><text fill="#111827" font-family="Arial" font-size="14" lengthAdjust="spacing" textLength="194.2493" x="2093.89" y="227.1339">loss_t, &#916; loss_t, peak(&#916;), onset</text></g><!--entity Cone--><g class="entity" data-qualified-name="Cone" data-source-line="34" id="ent0010"><rect fill="#F1F1F1" height="125.3396" rx="8" ry="8" style="stroke:#181818;stroke-width:0.5;" width="376.9786" x="1645.91" y="7"/><rect fill="#F1F1F1" height="10" style="stroke:#181818;stroke-width:0.5;" width="15" x="2002.8886" y="12"/><rect fill="#F1F1F1" height="2" style="stroke:#181818;stroke-width:0.5;" width="4" x="2000.8886" y="14"/><rect fill="#F1F1F1" height="2" style="stroke:#181818;stroke-width:0.5;" width="4" x="2000.8886" y="18"/><text fill="#000000" font-family="Arial" font-size="14" lengthAdjust="spacing" textLength="195.9712" x="1660.91" y="41.9659">37_lila_delta_cone_analysis.py</text><text fill="#000000" font-family="Arial" font-size="14" lengthAdjust="spacing" textLength="336.9786" x="1660.91" y="61.0339">robust scale z_i := tanh((x_i - med_i)/(1.4826 MAD_i))</text><text fill="#000000" font-family="Arial" font-size="14" lengthAdjust="spacing" textLength="122.4575" x="1660.91" y="80.1018">&#916;x_t := x_{t+1} - x_t</text><text fill="#000000" font-family="Arial" font-size="14" lengthAdjust="spacing" textLength="190.6092" x="1660.91" y="99.1697">Q_s(&#916;x_t) := &#931;_i s_i (&#916;x_{t,i})^2</text><text fill="#000000" font-family="Arial" font-size="14" lengthAdjust="spacing" textLength="228.7591" x="1660.91" y="118.2376">forward_t := (&#916; arrow_t &lt;= &#949;_arrow)</text></g><!--entity ConeOut--><g class="entity" data-qualified-name="ConeOut" data-source-line="35" id="ent0011"><rect fill="#EFF6FF" height="118.3396" rx="8" ry="8" style="stroke:#1F2937;stroke-width:0.5;" width="182.2074" x="2104.91" y="26.5"/><polygon fill="#EFF6FF" points="2270.1174,31.5,2270.1174,45.5,2282.1174,45.5,2282.1174,37.5,2276.1174,31.5,2270.1174,31.5" style="stroke:#1F2937;stroke-width:0.5;"/><line style="stroke:#1F2937;stroke-width:0.5;" x1="2276.1174" x2="2276.1174" y1="31.5" y2="37.5"/><line style="stroke:#1F2937;stroke-width:0.5;" x1="2282.1174" x2="2276.1174" y1="37.5" y2="37.5"/><text fill="#111827" font-family="Arial" font-size="14" lengthAdjust="spacing" textLength="85.9317" x="2114.91" y="54.4659">Cone surface</text><text fill="#111827" font-family="Arial" font-size="14" lengthAdjust="spacing" textLength="63.1257" x="2114.91" y="73.5339">cone_frac</text><text fill="#111827" font-family="Arial" font-size="14" lengthAdjust="spacing" textLength="83.7057" x="2114.91" y="92.6018">forward_frac</text><text fill="#111827" font-family="Arial" font-size="14" lengthAdjust="spacing" textLength="121.6595" x="2114.91" y="111.6697">forward_cone_frac</text><text fill="#111827" font-family="Arial" font-size="14" lengthAdjust="spacing" textLength="152.2074" x="2114.91" y="130.7376">argmax_s compatibility</text></g><!--entity Basin--><g class="entity" data-qualified-name="Basin" data-source-line="37" id="ent0012"><rect fill="#F1F1F1" height="125.3396" rx="8" ry="8" style="stroke:#181818;stroke-width:0.5;" width="254.6191" x="1707.09" y="289"/><rect fill="#F1F1F1" height="10" style="stroke:#181818;stroke-width:0.5;" width="15" x="1941.7091" y="294"/><rect fill="#F1F1F1" height="2" style="stroke:#181818;stroke-width:0.5;" width="4" x="1939.7091" y="296"/><rect fill="#F1F1F1" height="2" style="stroke:#181818;stroke-width:0.5;" width="4" x="1939.7091" y="300"/><text fill="#000000" font-family="Arial" font-size="14" lengthAdjust="spacing" textLength="119.7135" x="1722.09" y="323.9659">bad-mode surface</text><text fill="#000000" font-family="Arial" font-size="14" lengthAdjust="spacing" textLength="58.2538" x="1722.09" y="343.0339">label_t :=</text><text fill="#000000" font-family="Arial" font-size="14" lengthAdjust="spacing" textLength="207.3391" x="1729.37" y="362.1018">incoherent, if coherence_t &lt; &#952;_c</text><text fill="#000000" font-family="Arial" font-size="14" lengthAdjust="spacing" textLength="192.6532" x="1729.37" y="381.1697">coherent_bad, if bad_t &gt;= &#952;_b</text><text fill="#000000" font-family="Arial" font-size="14" lengthAdjust="spacing" textLength="165.0733" x="1729.37" y="400.2376">coherent_safe, otherwise</text></g><!--entity BasinOut--><g class="entity" data-qualified-name="BasinOut" data-source-line="38" id="ent0013"><rect fill="#EFF6FF" height="137.4075" rx="8" ry="8" style="stroke:#1F2937;stroke-width:0.5;" width="145.2896" x="2123.37" y="275.96"/><polygon fill="#EFF6FF" points="2251.6596,280.96,2251.6596,294.96,2263.6596,294.96,2263.6596,286.96,2257.6596,280.96,2251.6596,280.96" style="stroke:#1F2937;stroke-width:0.5;"/><line style="stroke:#1F2937;stroke-width:0.5;" x1="2257.6596" x2="2257.6596" y1="280.96" y2="286.96"/><line style="stroke:#1F2937;stroke-width:0.5;" x1="2263.6596" x2="2257.6596" y1="286.96" y2="286.96"/><text fill="#111827" font-family="Arial" font-size="14" lengthAdjust="spacing" textLength="101.8776" x="2133.37" y="303.9259">Regime surface</text><text fill="#111827" font-family="Arial" font-size="14" lengthAdjust="spacing" textLength="97.4116" x="2133.37" y="322.9939">bad_dwell_frac</text><text fill="#111827" font-family="Arial" font-size="14" lengthAdjust="spacing" textLength="99.6096" x="2133.37" y="342.0618">safe_dwell_frac</text><text fill="#111827" font-family="Arial" font-size="14" lengthAdjust="spacing" textLength="115.2896" x="2133.37" y="361.1297">bad_to_safe_ratio</text><text fill="#111827" font-family="Arial" font-size="14" lengthAdjust="spacing" textLength="92.9316" x="2133.37" y="380.1976">mean bad run</text><text fill="#111827" font-family="Arial" font-size="14" lengthAdjust="spacing" textLength="105.2641" x="2133.37" y="399.2655">bad&#8594;safe count</text></g><!--entity Surface--><g class="entity" data-qualified-name="Surface" data-source-line="40" id="ent0014"><rect fill="#EFF6FF" height="80.2038" rx="8" ry="8" style="stroke:#1F2937;stroke-width:0.5;" width="271.1351" x="2398.04" y="261.56"/><polygon fill="#EFF6FF" points="2652.1751,266.56,2652.1751,280.56,2664.1751,280.56,2664.1751,272.56,2658.1751,266.56,2652.1751,266.56" style="stroke:#1F2937;stroke-width:0.5;"/><line style="stroke:#1F2937;stroke-width:0.5;" x1="2658.1751" x2="2658.1751" y1="266.56" y2="272.56"/><line style="stroke:#1F2937;stroke-width:0.5;" x1="2664.1751" x2="2658.1751" y1="272.56" y2="272.56"/><text fill="#111827" font-family="Arial" font-size="14" lengthAdjust="spacing" textLength="184.8973" x="2408.04" y="289.5259">Phase 2 comparison surface</text><text fill="#111827" font-family="Arial" font-size="14" lengthAdjust="spacing" textLength="241.1351" x="2408.04" y="308.5939">O := {onset, timing, derivative shape,</text><text fill="#111827" font-family="Arial" font-size="14" lengthAdjust="spacing" textLength="167.2433" x="2408.04" y="327.6618">SR/CN trend, basin dwell}</text></g><g class="entity" data-qualified-name="GMN40" data-source-line="76" id="ent0041"><path d="M2369.14,384.4 L2369.14,466.9301 A8,8 0 0 0 2377.14,474.9301 L2690.0843,474.9301 A8,8 0 0 0 2698.0843,466.9301 L2698.0843,386.4 L2688.0843,376.4 L2537.61,376.4 L2533.61,342.17 L2529.61,376.4 L2377.14,376.4 A8,8 0 0 0 2369.14,384.4" fill="#FEFCE8" style="stroke:#A16207;stroke-width:0.5;"/><path d="M2688.0843,376.4 L2688.0843,382.4 A4,4 0 0 0 2692.0843,386.4 L2698.0843,386.4 L2688.0843,376.4" fill="#FEFCE8" style="stroke:#A16207;stroke-width:0.5;"/><text fill="#000000" font-family="Arial" font-size="13" lengthAdjust="spacing" textLength="257.9332" x="2375.14" y="395.297">Proposal stays separate from observation.</text><text fill="#000000" font-family="Arial" font-size="13" lengthAdjust="spacing" textLength="55.718" x="2375.14" y="413.003">Example:</text><text fill="#000000" font-family="Arial" font-size="13" lengthAdjust="spacing" textLength="225.3942" x="2375.14" y="430.709">P = geometry suppresses bad modes</text><text fill="#000000" font-family="Arial" font-size="13" lengthAdjust="spacing" textLength="307.9443" x="2375.14" y="448.4151">F(P) = predicted vs measured bad-basin occupancy</text><text fill="#000000" font-family="Arial" font-size="13" lengthAdjust="spacing" textLength="253.0712" x="2375.14" y="466.1211">Accept only after comparison, not before.</text></g><!--link RawLog to Adapter--><g class="link" data-entity-1="ent0002" data-entity-2="ent0003" data-link-type="dependency" data-source-line="49" id="lnk20"><path d="M235.53,143.66 C267.12,143.66 294.91,143.66 324.71,143.66" fill="none" id="RawLog-to-Adapter" style="stroke:#334155;stroke-width:2;"/><polygon fill="#334155" points="330.71,143.66,321.71,139.66,325.71,143.66,321.71,147.66,330.71,143.66" style="stroke:#334155;stroke-width:2;"/><text fill="#000000" font-family="Arial" font-size="13" lengthAdjust="spacing" textLength="34.216" x="266.21" y="139.557">parse</text></g><!--link Adapter to Trace--><g class="link" data-entity-1="ent0003" data-entity-2="ent0004" data-link-type="dependency" data-source-line="50" id="lnk21"><path d="M506.33,143.66 C540.64,143.66 574.26,143.66 609.63,143.66" fill="none" id="Adapter-to-Trace" style="stroke:#334155;stroke-width:2;"/><polygon fill="#334155" points="615.63,143.66,606.63,139.66,610.63,143.66,606.63,147.66,615.63,143.66" style="stroke:#334155;stroke-width:2;"/><text fill="#000000" font-family="Arial" font-size="13" lengthAdjust="spacing" textLength="48.5161" x="537.13" y="139.557">emit S_t</text></g><!--link Rep to Join--><g class="link" data-entity-1="ent0005" data-entity-2="ent0006" data-link-type="dependency" data-source-line="51" id="lnk22"><path d="M794.91,235.23 C833.45,232.74 880.43,229.21 922.46,224.66 C932.04,223.63 936.1741,223.174 946.0841,221.834" fill="none" id="Rep-to-Join" style="stroke:#334155;stroke-width:2;"/><polygon fill="#334155" points="952.03,221.03,942.5752,218.2721,947.0751,221.7,943.6472,226.1999,952.03,221.03" style="stroke:#334155;stroke-width:2;"/><text fill="#000000" font-family="Arial" font-size="13" lengthAdjust="spacing" textLength="72.3841" x="846.96" y="220.557">optional R_t</text></g><!--link Trace to Join--><g class="link" data-entity-1="ent0004" data-entity-2="ent0006" data-link-type="dependency" data-source-line="52" id="lnk23"><path d="M813.62,165.23 C858.91,175.22 905.7106,185.5388 946.4606,194.5188" fill="none" id="Trace-to-Join" style="stroke:#334155;stroke-width:2;"/><polygon fill="#334155" points="952.32,195.81,944.3917,189.9669,947.4372,194.734,942.6701,197.7794,952.32,195.81" style="stroke:#334155;stroke-width:2;"/><text fill="#000000" font-family="Arial" font-size="13" lengthAdjust="spacing" textLength="77.6621" x="844.46" y="169.047">align by step</text></g><!--link Join to Aligned--><g class="link" data-entity-1="ent0006" data-entity-2="ent0007" data-link-type="dependency" data-source-line="53" id="lnk24"><path d="M1089.35,210.66 C1121.83,210.66 1155.67,210.66 1192.69,210.66" fill="none" id="Join-to-Aligned" style="stroke:#334155;stroke-width:2;"/><polygon fill="#334155" points="1198.69,210.66,1189.69,206.66,1193.69,210.66,1189.69,214.66,1198.69,210.66" style="stroke:#334155;stroke-width:2;"/><text fill="#000000" font-family="Arial" font-size="13" lengthAdjust="spacing" textLength="48.9971" x="1119.91" y="206.557">emit X_t</text></g><!--link Aligned to Dyn--><g class="link" data-entity-1="ent0007" data-entity-2="ent0008" data-link-type="dependency" data-source-line="55" id="lnk25"><path d="M1430.37,210.66 C1516.81,210.66 1628.63,210.66 1714.55,210.66" fill="none" id="Aligned-to-Dyn" style="stroke:#334155;stroke-width:2;"/><polygon fill="#334155" points="1720.55,210.66,1711.55,206.66,1715.55,210.66,1711.55,214.66,1720.55,210.66" style="stroke:#334155;stroke-width:2;"/><text fill="#000000" font-family="Arial" font-size="13" lengthAdjust="spacing" textLength="118.4171" x="1478.91" y="206.557">apply &#916; on loss axis</text></g><!--link Dyn to DynOut--><g class="link" data-entity-1="ent0008" data-entity-2="ent0009" data-link-type="dependency" data-source-line="56" id="lnk26"><path d="M1948.2,210.66 C1991.35,210.66 2034.51,210.66 2077.54,210.66" fill="none" id="Dyn-to-DynOut" style="stroke:#334155;stroke-width:2;"/><polygon fill="#334155" points="2083.54,210.66,2074.54,206.66,2078.54,210.66,2074.54,214.66,2083.54,210.66" style="stroke:#334155;stroke-width:2;"/></g><!--link Aligned to Cone--><g class="link" data-entity-1="ent0007" data-entity-2="ent0010" data-link-type="dependency" data-source-line="58" id="lnk27"><path d="M1429.41,179.63 C1492.78,162.38 1567.4506,142.0559 1639.8606,122.3459" fill="none" id="Aligned-to-Cone" style="stroke:#334155;stroke-width:2;"/><polygon fill="#334155" points="1645.65,120.77,1635.9154,119.2742,1640.8255,122.0832,1638.0165,126.9934,1645.65,120.77" style="stroke:#334155;stroke-width:2;"/><text fill="#000000" font-family="Arial" font-size="13" lengthAdjust="spacing" textLength="97.6951" x="1489.2785" y="109.617">choose features</text><text fill="#000000" font-family="Arial" font-size="13" lengthAdjust="spacing" textLength="133.4321" x="1471.41" y="127.323">exclude arrow from Q</text></g><!--link Cone to ConeOut--><g class="link" data-entity-1="ent0010" data-entity-2="ent0011" data-link-type="dependency" data-source-line="59" id="lnk28"><path d="M2023.37,78.03 C2051.61,79.28 2073.5859,80.2629 2098.4959,81.3729" fill="none" id="Cone-to-ConeOut" style="stroke:#334155;stroke-width:2;"/><polygon fill="#334155" points="2104.49,81.64,2095.677,77.2433,2099.495,81.4174,2095.3209,85.2354,2104.49,81.64" style="stroke:#334155;stroke-width:2;"/></g><!--link Aligned to Basin--><g class="link" data-entity-1="ent0007" data-entity-2="ent0012" data-link-type="dependency" data-source-line="61" id="lnk29"><path d="M1429.41,241.7 C1511.47,264.03 1616.4007,292.594 1701.1807,315.674" fill="none" id="Aligned-to-Basin" style="stroke:#334155;stroke-width:2;"/><polygon fill="#334155" points="1706.97,317.25,1699.3367,311.0264,1702.1456,315.9366,1697.2353,318.7455,1706.97,317.25" style="stroke:#334155;stroke-width:2;"/><text fill="#000000" font-family="Arial" font-size="13" lengthAdjust="spacing" textLength="154.7911" x="1460.91" y="248.227">use basin or derive labels</text></g><!--link Basin to BasinOut--><g class="link" data-entity-1="ent0012" data-entity-2="ent0013" data-link-type="dependency" data-source-line="62" id="lnk30"><path d="M1962.19,349.2 C2016.08,348.15 2070.9511,347.0761 2116.9311,346.1861" fill="none" id="Basin-to-BasinOut" style="stroke:#334155;stroke-width:2;"/><polygon fill="#334155" points="2122.93,346.07,2113.8543,342.2449,2117.9309,346.1668,2114.0091,350.2434,2122.93,346.07" style="stroke:#334155;stroke-width:2;"/></g><!--link DynOut to Surface--><g class="link" data-entity-1="ent0009" data-entity-2="ent0014" data-link-type="dependency" data-source-line="64" id="lnk31"><path d="M2308.3,240.84 C2336.92,248.6 2362.2292,255.4594 2391.9092,263.5094" fill="none" id="DynOut-to-Surface" style="stroke:#334155;stroke-width:2;"/><polygon fill="#334155" points="2397.7,265.08,2390.0609,258.8636,2392.8743,263.7712,2387.9667,266.5846,2397.7,265.08" style="stroke:#334155;stroke-width:2;"/></g><!--link ConeOut to Surface--><g class="link" data-entity-1="ent0011" data-entity-2="ent0014" data-link-type="dependency" data-source-line="65" id="lnk32"><path d="M2287.4,143.73 C2294.72,149.78 2301.74,156.12 2308.14,162.66 C2339.01,194.27 2327.75,218.81 2362.83,245.66 C2373.43,253.78 2379.848,258.1387 2392.198,264.1087" fill="none" id="ConeOut-to-Surface" style="stroke:#334155;stroke-width:2;"/><polygon fill="#334155" points="2397.6,266.72,2391.2379,259.2017,2393.0984,264.5439,2387.7562,266.4043,2397.6,266.72" style="stroke:#334155;stroke-width:2;"/></g><!--link BasinOut to Surface--><g class="link" data-entity-1="ent0013" data-entity-2="ent0014" data-link-type="dependency" data-source-line="66" id="lnk33"><path d="M2269.01,335.44 C2306.57,330.63 2347.7986,325.3423 2391.8286,319.7023" fill="none" id="BasinOut-to-Surface" style="stroke:#334155;stroke-width:2;"/><polygon fill="#334155" points="2397.78,318.94,2388.3447,316.1159,2392.8205,319.5753,2389.3612,324.0511,2397.78,318.94" style="stroke:#334155;stroke-width:2;"/></g><!--link DynOut to DashiS--><g class="link" data-entity-1="ent0009" data-entity-2="ent0016" data-link-type="dependency" data-source-line="68" id="lnk34"><path d="M2308.3,205.36 C2333.29,204.17 2354.1868,203.1762 2380.3668,201.9262" fill="none" id="DynOut-to-DashiS" style="stroke:#334155;stroke-width:2;"/><polygon fill="#334155" points="2386.36,201.64,2377.1795,198.0738,2381.3657,201.8785,2377.561,206.0647,2386.36,201.64" style="stroke:#334155;stroke-width:2;"/></g><!--link ConeOut to DashiS--><g class="link" data-entity-1="ent0011" data-entity-2="ent0016" data-link-type="dependency" data-source-line="69" id="lnk35"><path d="M2287.42,103.77 C2304.72,107.87 2322.59,112.54 2339.14,117.66 C2380.75,130.54 2420.5283,146.0361 2456.8283,161.2861" fill="none" id="ConeOut-to-DashiS" style="stroke:#334155;stroke-width:2;"/><polygon fill="#334155" points="2462.36,163.61,2455.6118,156.4363,2457.7503,161.6734,2452.5132,163.8119,2462.36,163.61" style="stroke:#334155;stroke-width:2;"/></g><!--link BasinOut to DashiS--><g class="link" data-entity-1="ent0013" data-entity-2="ent0016" data-link-type="dependency" data-source-line="70" id="lnk36"><path d="M2269.02,295.04 C2297.35,277.08 2330.74,257.77 2362.83,243.66 C2378,237 2388.6206,232.8454 2404.9406,227.4754" fill="none" id="BasinOut-to-DashiS" style="stroke:#334155;stroke-width:2;"/><polygon fill="#334155" points="2410.64,225.6,2400.8407,224.6134,2405.8905,227.1628,2403.3411,232.2126,2410.64,225.6" style="stroke:#334155;stroke-width:2;"/></g><!--link DashiS to DashiL--><g class="link" data-entity-1="ent0016" data-entity-2="ent0017" data-link-type="dependency" data-source-line="71" id="lnk37"><path d="M2680.66,192.74 C2707.57,192.38 2728.7105,192.1002 2752.6605,191.7802" fill="none" id="DashiS-to-DashiL" style="stroke:#334155;stroke-width:2;"/><polygon fill="#334155" points="2758.66,191.7,2749.6074,187.8206,2753.6604,191.7668,2749.7142,195.8199,2758.66,191.7" style="stroke:#334155;stroke-width:2;"/></g><!--link DashiL to DashiP--><g class="link" data-entity-1="ent0017" data-entity-2="ent0018" data-link-type="dependency" data-source-line="72" id="lnk38"><path d="M2917.84,190.1 C2936.76,189.96 2951.5302,189.8534 2972.2702,189.7034" fill="none" id="DashiL-to-DashiP" style="stroke:#334155;stroke-width:2;"/><polygon fill="#334155" points="2978.27,189.66,2969.2413,185.7252,2973.2701,189.6962,2969.2992,193.725,2978.27,189.66" style="stroke:#334155;stroke-width:2;"/></g><!--link DashiP to DashiF--><g class="link" data-entity-1="ent0018" data-entity-2="ent0019" data-link-type="dependency" data-source-line="73" id="lnk39"><path d="M3255.18,184.67 C3275.49,184.07 3290.2025,183.6436 3309.8925,183.0736" fill="none" id="DashiP-to-DashiF" style="stroke:#334155;stroke-width:2;"/><polygon fill="#334155" points="3315.89,182.9,3306.778,179.1621,3310.8921,183.0447,3307.0095,187.1588,3315.89,182.9" style="stroke:#334155;stroke-width:2;"/></g><?plantuml-src fLRDRjj64BxpAGRfHKObfP9ZnpMQ08vJzmTkh4XkqODGOaGkgQt9NM9tPKirV2tG7elq2VeC0NheC_WX_2ITsQL4CcxHGmL8uixFDz_Epioo49a3fy78VEaWbKOaJceLsIkfAZHOmWAJgzpebKfFTQ4DV9JvJyl2BZ7LDrBba65XHKip3Mv62GEZmvRYn1XzK-FjxpyR7HnygBnSokHA2MjXt59LH0PpCNERGW1pHPKNxOYfo71Lk3Ejt1ii1M59B5hwdG_SHW2lj4c5gNcCil6d-yz9oivRsMXqD6RPgqTPECemIwAx5ZOQ9pDCtF-55bbsI0bkGoljQiQFU8Wi4KSV1iJHuVYJvmGHxKWzcU8D53gVgvvreefT7vn1gU92MykhQopgvxqdW1R8_bpdKQBBIYkX267_82vaWMILnqx7YRqULfivKxG26FH6qWEX9i8ZdAHOEM5Q72vP1wUpx-Pg5ZiuVW4xCcqQDGDltVA-gBWsiO3PzEdfcm0ptS8OTaxKZhsesjGv2loefPghxuC7nt_uzNSW0E_mDIbRiKuAcIkHqhQGKczNXiGYE5Eq3ja-DC7xC1mE0uCQ8Ufay31aq6UUEYPEDmfBcLYVoFjtTHQON_qq20-tRZ2werGNsZNHT_OXuEjDUmENikIMt35_vDI7Ik1Lx_xTNX-qii9jGIvMhalwUI2TYi9Xd90qHZg5ZPM1jj6BbNLW4wIs-YcMp9wQRDdhhManW5AaiTnxsXiDdnsD3-6RazUqtEFjhiDMrxIzZqTtP4g2kNeRsvxNxR7o_Wy2iVJriblNbtTxFupdAjFc1arQ7p_j2dbiqF8pydaV-rN8ooanRYM6bqrQ_7OoAhG6iRjg6Q39Irp75ZWvwEH25j9jTZ4-pDi2qq6fqrQm0XUYy8pd2a1IyAKmPDi7cK6zI0Jl0Ux_Z1Cssfh4XERDw9yCNhvWYqN7mc8cw2WTBRaHFQzNQ3jbFHMvB5kC62sz4KLHRv4nEW8VJdlisD2UzLoL0XNJ0BDItk3XvzzOJqnMoZLXVJwQq9CbqdGOX-GPQRLgQ5pm8TxwAgInv2ktJxFSo6iAUItuYgb4duQ6Rtn7swLaB3W8UB9tFkeim4LHC-MVl3wPVVaLZNrC2JDKEDgbd9B03zI6tyntUe4ROPhfr7JDzcasvT_JD_ph6UpQZt5d7SXpT4ucEz1p3pdhmoLjBlws3m-__1MNBU_pZlV4w4fR6dUr-uJTSw5BuSo6SbTLXkv7OVrPSA7P1cdIGVe2AtWAkRuMHg7YX9_r9hwx22ALYQD1TssfKP5EHAJ-K0SXlJf9LXNvK9zZaeZAqQmeDbo87e8AzNqJzOnld71lm63mSdi1m37uEoBQhbaNhe9Z4ALqF8mZcjXUmOEOv7exx2dVKJ1kQP67Aoms_jg9lD07hATs3KlJEegsCjRJT6Fdgg8jqCYW4kHZ1LnB6x6kjl6Ls_RpC-COagNMLCEPG4TvidCbracneWxtqmOoeqju6tdZhTSZADyQXBKYe3h59fGwrmdD1ni5avsnXmYil71RvZLyHxPrw0ZRpdMLjdrhKSUrbeM_Hd8U9EUDP18aaqPo5aN-TMMXdQDyw6p7OrVGTAbkB5Z1BpTawVEc5rOORdUjXj7dQoohGXn74_YFaezy6VvB8SC_r75qqYfZpBWScudKvpSjM0WQ_c8OqPJnRrv_0m00?></g></svg>